{
	"asset":{
		"generator":"Khronos glTF Blender I/O v4.4.55",
		"version":"2.0"
	},
	"scene":0,
	"scenes":[
		{
			"name":"Scene",
			"nodes":[
				0
			]
		}
	],
	"nodes":[
		{
			"mesh":0,
			"name":"croplogovideo2"
		}
	],
	"materials":[
		{
			"doubleSided":true,
			"name":"croplogovideo2"
		}
	],
	"meshes":[
		{
			"name":"croplogovideo2",
			"primitives":[
				{
					"attributes":{
						"POSITION":0,
						"NORMAL":1,
						"TEXCOORD_0":2
					},
					"indices":3,
					"material":0
				}
			]
		}
	],
	"accessors":[
		{
			"bufferView":0,
			"componentType":5126,
			"count":121282,
			"max":[
				1.8740167617797852,
				0.1968500018119812,
				0.3818882405757904
			],
			"min":[
				-1.9370089769363403,
				-0.1968500018119812,
				-0.3858252167701721
			],
			"type":"VEC3"
		},
		{
			"bufferView":1,
			"componentType":5126,
			"count":121282,
			"type":"VEC3"
		},
		{
			"bufferView":2,
			"componentType":5126,
			"count":121282,
			"type":"VEC2"
		},
		{
			"bufferView":3,
			"componentType":5125,
			"count":255984,
			"type":"SCALAR"
		}
	],
	"bufferViews":[
		{
			"buffer":0,
			"byteLength":1455384,
			"byteOffset":0,
			"target":34962
		},
		{
			"buffer":0,
			"byteLength":1455384,
			"byteOffset":1455384,
			"target":34962
		},
		{
			"buffer":0,
			"byteLength":970256,
			"byteOffset":2910768,
			"target":34962
		},
		{
			"buffer":0,
			"byteLength":1023936,
			"byteOffset":3881024,
			"target":34963
		}
	],
	"buffers":[
		{
			"byteLength":4904960,
			"uri":"ImageToStl.com_.bin"
		}
	]
}
